<svg xmlns="http://www.w3.org/2000/svg" width="120" height="120" viewBox="0 0 120 120"><defs><linearGradient id="grad3a" x1="0%" x2="100%" y1="0%" y2="100%"><stop offset="0%" style="stop-color:#10b981;stop-opacity:1"/><stop offset="100%" style="stop-color:#059669;stop-opacity:1"/></linearGradient><linearGradient id="grad3b" x1="0%" x2="100%" y1="0%" y2="100%"><stop offset="0%" style="stop-color:#f59e0b;stop-opacity:1"/><stop offset="100%" style="stop-color:#d97706;stop-opacity:1"/></linearGradient></defs><circle cx="60" cy="60" r="56" fill="url(#grad3a)"/><g transform="translate(60, 60)"><circle cx="0" cy="0" r="38" fill="none" stroke="#fff" stroke-width="8" opacity=".3"/><circle cx="0" cy="0" r="18" fill="#fff" opacity=".95"/><circle cx="0" cy="0" r="6" fill="url(#grad3a)"/><circle cx="0" cy="-38" r="5" fill="#fff" opacity=".8"/><circle cx="27" cy="-27" r="5" fill="#fff" opacity=".8"/><circle cx="38" cy="0" r="5" fill="#fff" opacity=".8"/><circle cx="27" cy="27" r="5" fill="#fff" opacity=".8"/><circle cx="0" cy="38" r="5" fill="#fff" opacity=".8"/><circle cx="-27" cy="27" r="5" fill="#fff" opacity=".8"/><circle cx="-38" cy="0" r="5" fill="#fff" opacity=".8"/><circle cx="-27" cy="-27" r="5" fill="#fff" opacity=".8"/></g><g transform="translate(75, 75)"><circle cx="20" cy="20" r="22" fill="url(#grad3b)"/><circle cx="12" cy="28" r="4" fill="#fff"/><path fill="none" stroke="#fff" stroke-linecap="round" stroke-width="3.5" d="M 10 18 A 12 12 0 0 1 22 30"/><path fill="none" stroke="#fff" stroke-linecap="round" stroke-width="3.5" d="M 10 10 A 20 20 0 0 1 30 30"/></g></svg>